<?xml version="1.0" encoding="UTF-8" standalone="no"?>
<!-- Created with Inkscape (http://www.inkscape.org/) -->

<svg
   xmlns:dc="http://purl.org/dc/elements/1.1/"
   xmlns:cc="http://creativecommons.org/ns#"
   xmlns:rdf="http://www.w3.org/1999/02/22-rdf-syntax-ns#"
   xmlns:svg="http://www.w3.org/2000/svg"
   xmlns="http://www.w3.org/2000/svg"
   xmlns:sodipodi="http://sodipodi.sourceforge.net/DTD/sodipodi-0.dtd"
   xmlns:inkscape="http://www.inkscape.org/namespaces/inkscape"
   width="297mm"
   height="210mm"
   viewBox="0 0 297 210"
   version="1.1"
   id="svg8"
   inkscape:version="0.92.3 (2405546, 2018-03-11)"
   sodipodi:docname="President Not Found.svg">
  <defs
     id="defs2" />
  <sodipodi:namedview
     id="base"
     pagecolor="#ffffff"
     bordercolor="#666666"
     borderopacity="1.0"
     inkscape:pageopacity="0.0"
     inkscape:pageshadow="2"
     inkscape:zoom="0.35"
     inkscape:cx="917.97526"
     inkscape:cy="297.85187"
     inkscape:document-units="mm"
     inkscape:current-layer="layer1"
     showgrid="false"
     inkscape:window-width="1680"
     inkscape:window-height="987"
     inkscape:window-x="1912"
     inkscape:window-y="25"
     inkscape:window-maximized="1" />
  <metadata
     id="metadata5">
    <rdf:RDF>
      <cc:Work
         rdf:about="">
        <dc:format>image/svg+xml</dc:format>
        <dc:type
           rdf:resource="http://purl.org/dc/dcmitype/StillImage" />
        <dc:title></dc:title>
      </cc:Work>
    </rdf:RDF>
  </metadata>
  <g
     inkscape:label="Layer 1"
     inkscape:groupmode="layer"
     id="layer1"
     transform="translate(0,-87)">
    <g
       aria-label="Error 404
President
Not Found"
       style="font-style:normal;font-weight:normal;font-size:10.58333302px;line-height:1.25;font-family:sans-serif;letter-spacing:0px;word-spacing:0px;fill:#000000;fill-opacity:1;stroke:none;stroke-width:0.26458332"
       id="text12-5-5-4"
       transform="matrix(3.9482165,0,0,3.9482165,-659.09128,-499.8777)">
      <path
         d="m 184.44887,164.12455 h -3.21428 v -1.51928 h 3.02307 V 161.21 h -3.02307 v -1.48311 h 3.21428 v -1.52962 h -5.1108 v 7.4569 h 5.1108 z"
         style="font-style:normal;font-variant:normal;font-weight:800;font-stretch:normal;font-family:'SF Pro Display';-inkscape-font-specification:'SF Pro Display Ultra-Bold';stroke-width:0.26458332"
         id="path202"
         inkscape:connector-curvature="0" />
      <path
         d="m 185.39455,165.65417 h 1.83451 v -2.96105 c 0,-0.78549 0.41858,-1.21957 1.18856,-1.21957 0.21704,0 0.42891,0.0413 0.58394,0.10335 v -1.56062 c -0.12402,-0.0465 -0.27905,-0.0724 -0.46509,-0.0724 -0.66146,0 -1.11621,0.38757 -1.32291,1.14722 h -0.0362 v -1.06454 h -1.78283 z"
         style="font-style:normal;font-variant:normal;font-weight:800;font-stretch:normal;font-family:'SF Pro Display';-inkscape-font-specification:'SF Pro Display Ultra-Bold';stroke-width:0.26458332"
         id="path204"
         inkscape:connector-curvature="0" />
      <path
         d="m 189.54933,165.65417 h 1.83451 v -2.96105 c 0,-0.78549 0.41858,-1.21957 1.18856,-1.21957 0.21704,0 0.42892,0.0413 0.58395,0.10335 v -1.56062 c -0.12403,-0.0465 -0.27906,-0.0724 -0.46509,-0.0724 -0.66146,0 -1.11621,0.38757 -1.32292,1.14722 h -0.0362 v -1.06454 h -1.78284 z"
         style="font-style:normal;font-variant:normal;font-weight:800;font-stretch:normal;font-family:'SF Pro Display';-inkscape-font-specification:'SF Pro Display Ultra-Bold';stroke-width:0.26458332"
         id="path206"
         inkscape:connector-curvature="0" />
      <path
         d="m 196.26727,165.78853 c 1.7725,0 2.87837,-1.0697 2.87837,-2.95072 0,-1.84485 -1.12137,-2.94556 -2.87837,-2.94556 -1.74667,0 -2.87838,1.10588 -2.87838,2.94556 0,1.87585 1.10588,2.95072 2.87838,2.95072 z m 0,-1.34358 c -0.63046,0 -1.01803,-0.57361 -1.01803,-1.60197 0,-1.01286 0.39791,-1.60714 1.01803,-1.60714 0.62528,0 1.02319,0.59428 1.02319,1.60714 0,1.02836 -0.39791,1.60197 -1.02319,1.60197 z"
         style="font-style:normal;font-variant:normal;font-weight:800;font-stretch:normal;font-family:'SF Pro Display';-inkscape-font-specification:'SF Pro Display Ultra-Bold';stroke-width:0.26458332"
         id="path208"
         inkscape:connector-curvature="0" />
      <path
         d="m 199.86395,165.65417 h 1.83451 v -2.96105 c 0,-0.78549 0.41858,-1.21957 1.18856,-1.21957 0.21704,0 0.42891,0.0413 0.58394,0.10335 v -1.56062 c -0.12402,-0.0465 -0.27905,-0.0724 -0.46509,-0.0724 -0.66145,0 -1.11621,0.38757 -1.32291,1.14722 h -0.0362 v -1.06454 h -1.78283 z"
         style="font-style:normal;font-variant:normal;font-weight:800;font-stretch:normal;font-family:'SF Pro Display';-inkscape-font-specification:'SF Pro Display Ultra-Bold';stroke-width:0.26458332"
         id="path210"
         inkscape:connector-curvature="0" />
      <path
         d="m 209.66697,165.65417 h 1.79317 v -1.20922 h 0.93017 V 162.967 h -0.93017 v -4.76973 h -2.6355 c -1.41077,2.10839 -2.18591,3.38997 -2.8422,4.66121 v 1.58647 h 3.68453 z m -2.0774,-2.67167 c 0.60979,-1.24023 1.17823,-2.1394 2.0929,-3.50366 h 0.0362 v 3.55534 h -2.12907 z"
         style="font-style:normal;font-variant:normal;font-weight:800;font-stretch:normal;font-family:'SF Pro Display';-inkscape-font-specification:'SF Pro Display Ultra-Bold';stroke-width:0.26458332"
         id="path212"
         inkscape:connector-curvature="0" />
      <path
         d="m 216.24538,165.84021 c 1.9482,0 3.15226,-1.49862 3.15226,-3.93258 0,-2.44946 -1.21957,-3.90157 -3.15226,-3.90157 -1.93787,0 -3.1626,1.45728 -3.1626,3.90674 0,2.43913 1.20923,3.92741 3.1626,3.92741 z m 0,-1.47795 c -0.74415,0 -1.23507,-0.84232 -1.23507,-2.45463 0,-1.60197 0.49609,-2.42362 1.23507,-2.42362 0.73897,0 1.22473,0.81649 1.22473,2.42879 0,1.61231 -0.48576,2.44946 -1.22473,2.44946 z"
         style="font-style:normal;font-variant:normal;font-weight:800;font-stretch:normal;font-family:'SF Pro Display';-inkscape-font-specification:'SF Pro Display Ultra-Bold';stroke-width:0.26458332"
         id="path214"
         inkscape:connector-curvature="0" />
      <path
         d="m 223.84698,165.65417 h 1.79317 v -1.20922 h 0.93018 V 162.967 h -0.93018 v -4.76973 h -2.6355 c -1.41076,2.10839 -2.18591,3.38997 -2.8422,4.66121 v 1.58647 h 3.68453 z m -2.07739,-2.67167 c 0.60978,-1.24023 1.17822,-2.1394 2.09289,-3.50366 h 0.0362 v 3.55534 h -2.12906 z"
         style="font-style:normal;font-variant:normal;font-weight:800;font-stretch:normal;font-family:'SF Pro Display';-inkscape-font-specification:'SF Pro Display Ultra-Bold';stroke-width:0.26458332"
         id="path216"
         inkscape:connector-curvature="0" />
      <path
         d="m 179.33807,171.538 v 7.45691 h 1.89652 V 176.809 h 1.21957 c 1.65881,0 2.80086,-1.0387 2.80086,-2.63033 0,-1.60197 -1.08521,-2.64067 -2.68717,-2.64067 z m 1.89652,1.45211 h 0.83199 c 0.79582,0 1.27124,0.41858 1.27124,1.19373 0,0.78031 -0.47542,1.19889 -1.28157,1.19889 h -0.82166 z"
         style="font-style:normal;font-variant:normal;font-weight:800;font-stretch:normal;font-family:'SF Pro Display';-inkscape-font-specification:'SF Pro Display Ultra-Bold';stroke-width:0.26458332"
         id="path218"
         inkscape:connector-curvature="0" />
      <path
         d="m 185.97332,178.99491 h 1.83452 v -2.96106 c 0,-0.78548 0.41857,-1.21956 1.18855,-1.21956 0.21704,0 0.42892,0.0413 0.58395,0.10335 v -1.56063 c -0.12403,-0.0465 -0.27906,-0.0723 -0.46509,-0.0723 -0.66146,0 -1.11621,0.38757 -1.32292,1.14721 h -0.0362 v -1.06453 h -1.78284 z"
         style="font-style:normal;font-variant:normal;font-weight:800;font-stretch:normal;font-family:'SF Pro Display';-inkscape-font-specification:'SF Pro Display Ultra-Bold';stroke-width:0.26458332"
         id="path220"
         inkscape:connector-curvature="0" />
      <path
         d="m 192.64475,174.53523 c 0.57878,0 0.98702,0.40308 1.01803,1.00253 h -2.04639 c 0.0465,-0.58395 0.46509,-1.00253 1.02836,-1.00253 z m 1.05937,2.68201 c -0.12919,0.38241 -0.5116,0.61495 -1.00253,0.61495 -0.66145,0 -1.11104,-0.46509 -1.11104,-1.13688 v -0.11369 h 3.79822 v -0.51676 c 0,-1.72083 -1.08004,-2.83187 -2.77503,-2.83187 -1.72082,0 -2.80086,1.15755 -2.80086,2.97656 0,1.81901 1.0697,2.91972 2.86288,2.91972 1.47277,0 2.5063,-0.74931 2.682,-1.91203 z"
         style="font-style:normal;font-variant:normal;font-weight:800;font-stretch:normal;font-family:'SF Pro Display';-inkscape-font-specification:'SF Pro Display Ultra-Bold';stroke-width:0.26458332"
         id="path222"
         inkscape:connector-curvature="0" />
      <path
         d="m 196.00889,175.07267 c 0,0.863 0.57877,1.44177 1.67948,1.67432 l 1.06453,0.2222 c 0.43925,0.093 0.60979,0.22221 0.60979,0.44959 0,0.29972 -0.29973,0.47542 -0.78549,0.47542 -0.53743,0 -0.87333,-0.24804 -0.925,-0.66662 h -1.77767 c 0.0775,1.15238 1.02836,1.90169 2.67167,1.90169 1.57096,0 2.63033,-0.74931 2.63033,-1.9172 0,-0.85266 -0.48059,-1.31258 -1.60197,-1.55029 l -1.17822,-0.23771 c -0.42375,-0.0879 -0.63046,-0.24805 -0.63046,-0.47026 0,-0.28938 0.28939,-0.48575 0.73898,-0.48575 0.50643,0 0.82682,0.25321 0.84232,0.65629 h 1.67432 c -0.0103,-1.16272 -0.96635,-1.89136 -2.50114,-1.89136 -1.55029,0 -2.51147,0.71313 -2.51147,1.83968 z"
         style="font-style:normal;font-variant:normal;font-weight:800;font-stretch:normal;font-family:'SF Pro Display';-inkscape-font-specification:'SF Pro Display Ultra-Bold';stroke-width:0.26458332"
         id="path224"
         inkscape:connector-curvature="0" />
      <path
         d="m 201.84315,178.99491 h 1.82935 v -5.62756 h -1.82935 z m 0.91468,-6.08232 c 0.53226,0 0.93534,-0.39274 0.93534,-0.89916 0,-0.50643 -0.40308,-0.89401 -0.93534,-0.89401 -0.53227,0 -0.94051,0.38758 -0.94051,0.89401 0,0.50642 0.40824,0.89916 0.94051,0.89916 z"
         style="font-style:normal;font-variant:normal;font-weight:800;font-stretch:normal;font-family:'SF Pro Display';-inkscape-font-specification:'SF Pro Display Ultra-Bold';stroke-width:0.26458332"
         id="path226"
         inkscape:connector-curvature="0" />
      <path
         d="m 206.64906,179.07759 c 0.83716,0 1.48828,-0.44958 1.71566,-1.04903 h 0.0362 v 0.96635 h 1.81901 V 171.538 h -1.82934 v 2.82153 h -0.0362 c -0.24805,-0.63045 -0.86817,-1.07486 -1.68466,-1.07486 -1.4056,0 -2.26342,1.0852 -2.26342,2.88354 0,1.81901 0.84232,2.90938 2.24275,2.90938 z m 0.6873,-4.36149 c 0.65629,0 1.05937,0.56328 1.05937,1.46761 0,0.91468 -0.39791,1.46245 -1.05937,1.46245 -0.66146,0 -1.0542,-0.55294 -1.0542,-1.46245 0,-0.90433 0.39791,-1.46761 1.0542,-1.46761 z"
         style="font-style:normal;font-variant:normal;font-weight:800;font-stretch:normal;font-family:'SF Pro Display';-inkscape-font-specification:'SF Pro Display Ultra-Bold';stroke-width:0.26458332"
         id="path228"
         inkscape:connector-curvature="0" />
      <path
         d="m 213.77007,174.53523 c 0.57878,0 0.98702,0.40308 1.01803,1.00253 h -2.04639 c 0.0465,-0.58395 0.46509,-1.00253 1.02836,-1.00253 z m 1.05937,2.68201 c -0.12919,0.38241 -0.5116,0.61495 -1.00252,0.61495 -0.66146,0 -1.11104,-0.46509 -1.11104,-1.13688 v -0.11369 h 3.79821 v -0.51676 c 0,-1.72083 -1.08003,-2.83187 -2.77502,-2.83187 -1.72083,0 -2.80086,1.15755 -2.80086,2.97656 0,1.81901 1.0697,2.91972 2.86287,2.91972 1.47278,0 2.50631,-0.74931 2.68201,-1.91203 z"
         style="font-style:normal;font-variant:normal;font-weight:800;font-stretch:normal;font-family:'SF Pro Display';-inkscape-font-specification:'SF Pro Display Ultra-Bold';stroke-width:0.26458332"
         id="path230"
         inkscape:connector-curvature="0" />
      <path
         d="m 217.22723,178.99491 h 1.83451 v -3.18327 c 0,-0.62011 0.36174,-1.05936 0.94568,-1.05936 0.59945,0 0.90434,0.3824 0.90434,1.02319 v 3.21944 h 1.82934 v -3.61218 c 0,-1.33842 -0.69763,-2.1239 -1.95337,-2.1239 -0.86299,0 -1.4521,0.41858 -1.74149,1.16788 h -0.0362 v -1.05936 h -1.78284 z"
         style="font-style:normal;font-variant:normal;font-weight:800;font-stretch:normal;font-family:'SF Pro Display';-inkscape-font-specification:'SF Pro Display Ultra-Bold';stroke-width:0.26458332"
         id="path232"
         inkscape:connector-curvature="0" />
      <path
         d="m 224.05368,172.10644 v 1.26091 h -0.76481 v 1.34875 h 0.76481 v 2.73369 c 0,1.10587 0.57878,1.55546 2.04122,1.55546 0.35657,0 0.62529,-0.031 0.80099,-0.0672 v -1.30225 c -0.10852,0.0207 -0.21704,0.0258 -0.36174,0.0258 -0.43925,0 -0.64595,-0.19637 -0.64595,-0.58394 v -2.36162 h 1.01286 v -1.34875 h -1.01286 v -1.26091 z"
         style="font-style:normal;font-variant:normal;font-weight:800;font-stretch:normal;font-family:'SF Pro Display';-inkscape-font-specification:'SF Pro Display Ultra-Bold';stroke-width:0.26458332"
         id="path234"
         inkscape:connector-curvature="0" />
      <path
         d="m 181.13641,192.33565 v -4.377 h 0.0413 l 3.1781,4.377 h 1.49862 v -7.45691 h -1.79834 v 4.33565 h -0.0413 l -3.1626,-4.33565 h -1.51412 v 7.45691 z"
         style="font-style:normal;font-variant:normal;font-weight:800;font-stretch:normal;font-family:'SF Pro Display';-inkscape-font-specification:'SF Pro Display Ultra-Bold';stroke-width:0.26458332"
         id="path236"
         inkscape:connector-curvature="0" />
      <path
         d="m 189.57,192.47001 c 1.7725,0 2.87838,-1.06971 2.87838,-2.95073 0,-1.84485 -1.12138,-2.94556 -2.87838,-2.94556 -1.74666,0 -2.87838,1.10588 -2.87838,2.94556 0,1.87586 1.10588,2.95073 2.87838,2.95073 z m 0,-1.34359 c -0.63045,0 -1.01802,-0.57361 -1.01802,-1.60197 0,-1.01286 0.3979,-1.60714 1.01802,-1.60714 0.62529,0 1.0232,0.59428 1.0232,1.60714 0,1.02836 -0.39791,1.60197 -1.0232,1.60197 z"
         style="font-style:normal;font-variant:normal;font-weight:800;font-stretch:normal;font-family:'SF Pro Display';-inkscape-font-specification:'SF Pro Display Ultra-Bold';stroke-width:0.26458332"
         id="path238"
         inkscape:connector-curvature="0" />
      <path
         d="m 193.6266,185.44718 v 1.2609 h -0.76481 v 1.34876 h 0.76481 v 2.73368 c 0,1.10588 0.57878,1.55546 2.04122,1.55546 0.35657,0 0.62529,-0.031 0.80099,-0.0672 v -1.30224 c -0.10852,0.0207 -0.21705,0.0258 -0.36174,0.0258 -0.43925,0 -0.64595,-0.19637 -0.64595,-0.58394 v -2.36161 h 1.01285 v -1.34876 h -1.01285 v -1.2609 z"
         style="font-style:normal;font-variant:normal;font-weight:800;font-stretch:normal;font-family:'SF Pro Display';-inkscape-font-specification:'SF Pro Display Ultra-Bold';stroke-width:0.26458332"
         id="path240"
         inkscape:connector-curvature="0" />
      <path
         d="m 201.30572,192.33565 v -2.7802 h 2.88871 v -1.4521 h -2.88871 v -1.69499 h 3.1781 v -1.52962 h -5.07463 v 7.45691 z"
         style="font-style:normal;font-variant:normal;font-weight:800;font-stretch:normal;font-family:'SF Pro Display';-inkscape-font-specification:'SF Pro Display Ultra-Bold';stroke-width:0.26458332"
         id="path242"
         inkscape:connector-curvature="0" />
      <path
         d="m 207.78078,192.47001 c 1.7725,0 2.87837,-1.06971 2.87837,-2.95073 0,-1.84485 -1.12137,-2.94556 -2.87837,-2.94556 -1.74667,0 -2.87838,1.10588 -2.87838,2.94556 0,1.87586 1.10588,2.95073 2.87838,2.95073 z m 0,-1.34359 c -0.63046,0 -1.01803,-0.57361 -1.01803,-1.60197 0,-1.01286 0.39791,-1.60714 1.01803,-1.60714 0.62528,0 1.02319,0.59428 1.02319,1.60714 0,1.02836 -0.39791,1.60197 -1.02319,1.60197 z"
         style="font-style:normal;font-variant:normal;font-weight:800;font-stretch:normal;font-family:'SF Pro Display';-inkscape-font-specification:'SF Pro Display Ultra-Bold';stroke-width:0.26458332"
         id="path244"
         inkscape:connector-curvature="0" />
      <path
         d="m 216.86549,186.70808 h -1.82934 v 3.18327 c 0,0.63562 -0.36174,1.05937 -0.93018,1.05937 -0.57361,0 -0.91984,-0.35657 -0.91984,-1.02319 v -3.21945 h -1.83451 v 3.61735 c 0,1.32809 0.85266,2.11874 2.06189,2.11874 0.84749,0 1.38493,-0.43408 1.63814,-1.17306 h 0.0362 v 1.06454 h 1.77767 z"
         style="font-style:normal;font-variant:normal;font-weight:800;font-stretch:normal;font-family:'SF Pro Display';-inkscape-font-specification:'SF Pro Display Ultra-Bold';stroke-width:0.26458332"
         id="path246"
         inkscape:connector-curvature="0" />
      <path
         d="m 217.74399,192.33565 h 1.83451 v -3.18327 c 0,-0.62012 0.36174,-1.05937 0.94568,-1.05937 0.59945,0 0.90434,0.38241 0.90434,1.0232 v 3.21944 h 1.82935 v -3.61219 c 0,-1.33842 -0.69764,-2.1239 -1.95337,-2.1239 -0.863,0 -1.45211,0.41858 -1.7415,1.16789 h -0.0362 v -1.05937 h -1.78284 z"
         style="font-style:normal;font-variant:normal;font-weight:800;font-stretch:normal;font-family:'SF Pro Display';-inkscape-font-specification:'SF Pro Display Ultra-Bold';stroke-width:0.26458332"
         id="path248"
         inkscape:connector-curvature="0" />
      <path
         d="m 226.18275,192.41833 c 0.83716,0 1.48829,-0.44959 1.71566,-1.04903 h 0.0362 v 0.96635 h 1.81901 v -7.45691 h -1.82935 v 2.82153 h -0.0362 c -0.24805,-0.63045 -0.86817,-1.07487 -1.68465,-1.07487 -1.4056,0 -2.26343,1.08521 -2.26343,2.88355 0,1.81901 0.84232,2.90938 2.24275,2.90938 z m 0.6873,-4.36149 c 0.65629,0 1.05937,0.56327 1.05937,1.46761 0,0.91467 -0.39791,1.46244 -1.05937,1.46244 -0.66146,0 -1.0542,-0.55294 -1.0542,-1.46244 0,-0.90434 0.39791,-1.46761 1.0542,-1.46761 z"
         style="font-style:normal;font-variant:normal;font-weight:800;font-stretch:normal;font-family:'SF Pro Display';-inkscape-font-specification:'SF Pro Display Ultra-Bold';stroke-width:0.26458332"
         id="path250"
         inkscape:connector-curvature="0" />
    </g>
  </g>
</svg>
